<svg width="123" height="12" viewBox="0 0 123 12" fill="none" xmlns="http://www.w3.org/2000/svg">
<path d="M6.68262 2.52637H2.08887V11.085H0.366211V1.13184H6.68262V2.52637ZM12.2881 8.76758H8.43262L7.62598 11.085H5.82812L9.58789 1.13184H11.1396L14.9062 11.085H13.1016L12.2881 8.76758ZM8.91797 7.37305H11.8027L10.3604 3.24414L8.91797 7.37305ZM18.9873 6.81934H17.8115V11.085H16.0889V1.13184H17.8115V5.31543H18.7617L21.6875 1.13184H23.8066L20.3887 5.89648L24.1074 11.085H22.0293L18.9873 6.81934ZM32.1328 6.33398L34.1289 1.13184H36.0498L32.584 9.38965L32.2695 10.0117C31.8138 10.8229 31.0755 11.2285 30.0547 11.2285L29.3438 11.1875L29.3574 9.82031C29.4668 9.83854 29.6605 9.84766 29.9385 9.84766C30.4307 9.84766 30.777 9.63802 30.9775 9.21875L31.333 8.37793L27.9287 1.13184H29.8154L32.1328 6.33398ZM42.3457 3.8457C42.3457 3.39909 42.1771 3.04362 41.8398 2.7793C41.5026 2.51497 41.0446 2.38281 40.4658 2.38281C39.9691 2.38281 39.5544 2.51497 39.2217 2.7793C38.889 3.03906 38.7227 3.3763 38.7227 3.79102H37C37 3.2487 37.1504 2.76562 37.4512 2.3418C37.752 1.91797 38.1689 1.58984 38.7021 1.35742C39.2354 1.12044 39.8232 1.00195 40.4658 1.00195C41.6051 1.00195 42.4893 1.25033 43.1182 1.74707C43.7516 2.24382 44.0684 2.9388 44.0684 3.83203C44.0684 4.2832 43.9316 4.69792 43.6582 5.07617C43.3848 5.45443 43.002 5.75293 42.5098 5.97168C43.0658 6.16309 43.4896 6.45475 43.7812 6.84668C44.0775 7.23405 44.2256 7.71712 44.2256 8.2959C44.2256 9.18913 43.8838 9.90007 43.2002 10.4287C42.5166 10.9528 41.6051 11.2148 40.4658 11.2148C39.764 11.2148 39.1283 11.0895 38.5586 10.8389C37.9935 10.5882 37.5674 10.2464 37.2803 9.81348C36.9977 9.38053 36.8564 8.88379 36.8564 8.32324H38.5791C38.5791 8.75163 38.7568 9.11393 39.1123 9.41016C39.4678 9.70182 39.9189 9.84766 40.4658 9.84766C41.0765 9.84766 41.5664 9.7041 41.9355 9.41699C42.3092 9.12988 42.4961 8.75618 42.4961 8.2959C42.4961 7.73535 42.332 7.32975 42.0039 7.0791C41.6803 6.82389 41.2041 6.69629 40.5752 6.69629H39.4062V5.3291H40.5137C41.735 5.3291 42.3457 4.83464 42.3457 3.8457ZM52.1211 2.52637H47.5342V4.93945H49.5713C50.3005 4.93945 50.9362 5.06478 51.4785 5.31543C52.0208 5.56608 52.4333 5.92155 52.7158 6.38184C52.9984 6.84212 53.1396 7.37533 53.1396 7.98145C53.1396 8.91113 52.8229 9.65853 52.1895 10.2236C51.5605 10.7887 50.7015 11.0758 49.6123 11.085H45.8047V1.13184H52.1211V2.52637ZM47.5342 6.32715V9.7041H49.5645C50.1478 9.7041 50.6012 9.54688 50.9248 9.23242C51.2529 8.91341 51.417 8.49186 51.417 7.96777C51.417 7.46647 51.2575 7.06999 50.9385 6.77832C50.6195 6.48665 50.1774 6.33626 49.6123 6.32715H47.5342ZM60.4541 6.6416H56.3662V9.7041H61.1445V11.085H54.6367V1.13184H61.0967V2.52637H56.3662V5.27441H60.4541V6.6416ZM65.499 6.81934H64.3232V11.085H62.6006V1.13184H64.3232V5.31543H65.2734L68.1992 1.13184H70.3184L66.9004 5.89648L70.6191 11.085H68.541L65.499 6.81934ZM73.0254 7.85156C73.1165 8.57161 73.333 9.08431 73.6748 9.38965C74.0212 9.69499 74.5293 9.84766 75.1992 9.84766C75.9102 9.84766 76.4593 9.58789 76.8467 9.06836C77.2386 8.54883 77.4482 7.79915 77.4756 6.81934H73.9619V5.4248H77.4756C77.4391 4.44043 77.2181 3.68848 76.8125 3.16895C76.4115 2.64941 75.8464 2.38965 75.1172 2.38965C74.4792 2.38965 73.9893 2.54915 73.6475 2.86816C73.3102 3.18717 73.1006 3.70671 73.0186 4.42676H71.2959C71.4053 3.34212 71.7926 2.49902 72.458 1.89746C73.1279 1.2959 74.0143 0.995117 75.1172 0.995117C75.9329 0.995117 76.6507 1.18652 77.2705 1.56934C77.8903 1.95215 78.3665 2.49902 78.6992 3.20996C79.0365 3.9209 79.2074 4.74349 79.2119 5.67773V6.51855C79.2119 7.46191 79.0479 8.29134 78.7197 9.00684C78.3962 9.71777 77.929 10.2646 77.3184 10.6475C76.7077 11.0303 76.0013 11.2217 75.1992 11.2217C74.069 11.2217 73.1621 10.9255 72.4785 10.333C71.7949 9.736 71.403 8.90885 71.3027 7.85156H73.0254ZM88.7754 11.085H87.0527V6.66211H82.6025V11.085H80.873V1.13184H82.6025V5.27441H87.0527V1.13184H88.7754V11.085ZM96.6436 6.6416H92.5557V9.7041H97.334V11.085H90.8262V1.13184H97.2861V2.52637H92.5557V5.27441H96.6436V6.6416ZM100.472 7.38672V11.085H98.7422V1.13184H102.55C103.662 1.13184 104.544 1.42122 105.195 2C105.852 2.57878 106.18 3.3444 106.18 4.29688C106.18 5.27214 105.858 6.03092 105.216 6.57324C104.578 7.11556 103.682 7.38672 102.529 7.38672H100.472ZM100.472 5.99902H102.55C103.165 5.99902 103.634 5.85547 103.958 5.56836C104.282 5.27669 104.443 4.85742 104.443 4.31055C104.443 3.77279 104.279 3.3444 103.951 3.02539C103.623 2.70182 103.172 2.53548 102.598 2.52637H100.472V5.99902ZM114.062 2.52637H109.468V11.085H107.745V1.13184H114.062V2.52637ZM122.982 6.36816C122.982 7.34342 122.814 8.2002 122.477 8.93848C122.139 9.6722 121.656 10.2373 121.027 10.6338C120.403 11.0257 119.683 11.2217 118.867 11.2217C118.061 11.2217 117.34 11.0257 116.707 10.6338C116.078 10.2373 115.59 9.67448 115.244 8.94531C114.902 8.21615 114.729 7.37533 114.725 6.42285V5.8623C114.725 4.8916 114.896 4.03483 115.237 3.29199C115.584 2.54915 116.069 1.98177 116.693 1.58984C117.322 1.19336 118.042 0.995117 118.854 0.995117C119.665 0.995117 120.382 1.19108 121.007 1.58301C121.636 1.97038 122.121 2.53092 122.463 3.26465C122.805 3.99382 122.978 4.84375 122.982 5.81445V6.36816ZM121.253 5.84863C121.253 4.74577 121.043 3.90039 120.624 3.3125C120.209 2.72461 119.619 2.43066 118.854 2.43066C118.106 2.43066 117.521 2.72461 117.097 3.3125C116.677 3.89583 116.463 4.72298 116.454 5.79395V6.36816C116.454 7.46191 116.666 8.30729 117.09 8.9043C117.518 9.5013 118.111 9.7998 118.867 9.7998C119.633 9.7998 120.221 9.50814 120.631 8.9248C121.046 8.34147 121.253 7.48926 121.253 6.36816V5.84863Z" fill="#1D3448"/>
</svg>
