<svg width="36" height="26" viewBox="0 0 36 26" fill="none" xmlns="http://www.w3.org/2000/svg">
<path d="M35.0303 12.7816C34.917 11.7504 34.0342 10.9769 32.999 11.0004L7.90527 11.0004L14.4365 4.40662C14.8193 4.02771 15.0342 3.50818 15.0303 2.96912C15.0381 2.141 14.5342 1.39881 13.7686 1.09412C12.999 0.789434 12.124 0.988652 11.5615 1.59412L1.68652 11.5941L0.280273 13.0004L1.68652 14.4066L11.5615 24.4066C12.3389 25.1996 13.6123 25.2152 14.4053 24.4379C15.1982 23.6605 15.2139 22.3871 14.4365 21.5941L7.90527 15.0004L32.999 15.0004C33.542 15.0082 34.0615 14.7972 34.4443 14.4144C34.8271 14.0316 35.0381 13.5121 35.0303 12.9691C35.0342 12.9066 35.0342 12.8441 35.0303 12.7816Z" fill="#D52023"/>
</svg>
